<?xml version="1.0" encoding="utf-8"?>
<!-- Generator: Adobe Illustrator 23.0.1, SVG Export Plug-In . SVG Version: 6.00 Build 0) -->
<svg version="1.1" id="Layer_1" xmlns="http://www.w3.org/2000/svg" xmlns:xlink="http://www.w3.org/1999/xlink" x="0px" y="0px" viewBox="0 0 414 315" style="enable-background:new 0 0 414 315;" xml:space="preserve">
  <style type="text/css">
    .st0 {
      fill: #A7CF38;
    }
  </style>
  <g>
    <circle class="st0" cx="350.82" cy="107.82" r="9.93"/>
    <g>
      <path
        class="st0"
        d="M2.34,96.62h88.48v13.46l-35.92,0.02v61.23c0,0-1.23,31.16,27.67,31.93c28.69,0.76,29.01-33.32,29.01-33.32
			v-60.49h15.68v6.6c0,0,10.41-0.76,13.58-0.57c3.17,0.19,25.39,0.44,33.19,10.22l-9.08,9.08c0,0-3.3-6.6-23.17-7.36
			c0,0-10.47,0-14.6,1.27v39.92c0,0,1.33,47.36-44.94,47.35c-44.12-0.01-42.97-44.56-42.97-44.56l-0.38-61.31H2.34V96.62z"/>
      <g>
        <path
          class="st0"
          d="M304.14,130.07c0,0-18.41-2.22-28.56,16.06l0.06-18.09h-14.79v7.81c0,0-8.12-7.74-25.07-7.81h-27.42v-24.5
				l-15.49,4.25v20.29h-13.2h-0.19l-0.02,0.32l-0.05,12.09h13.23v34.04c0,0,0.35,43.7,42.11,43.7c38.08,0,41.74-38.6,41.74-38.6v-17
				c0,0,4.38-19.8,22.32-19.63c17.94,0.17,19.99,20.25,19.99,20.25v54.85h15.65v-55C334.46,163.1,335.56,130.07,304.14,130.07z
				 M235.27,206.04c0,0-26.53,1.78-26.53-33.64c0-35.04,26.53-32.75,26.53-32.75s25.64-1.06,25.64,33.19
				C260.92,206.94,235.27,206.04,235.27,206.04z"/>
      </g>
      <path
        class="st0"
        d="M343.34,132.08v44.26c0,0-0.85,40.37,41.21,41.3c0,0,17.26,0.59,26.23-4.65l-2.45-11.85
			c0,0-11.42,4.91-20.65,4.06c0,0-27.59-0.59-28.35-32.07c0,0-0.59-31.14,29.79-31.9c0,0,10.92-0.51,18.45,3.72l3.72-11.68
			c0,0-5.33-4.82-21.5-4.91c0,0-18.53-0.93-31.06,9.99l-0.05-6.27L343.34,132.08z"/>
    </g>
  </g>
</svg>