<?xml version="1.0" encoding="utf-8"?>
<!-- Generator: Adobe Illustrator 23.0.1, SVG Export Plug-In . SVG Version: 6.00 Build 0)  -->
<svg version="1.1" id="Layer_1" xmlns="http://www.w3.org/2000/svg" xmlns:xlink="http://www.w3.org/1999/xlink" x="0px" y="0px"
	 viewBox="0 0 260 260" style="enable-background:new 0 0 260 260;" xml:space="preserve">
<style type="text/css">
	.st0{fill:#A7D136;}
</style>
<g>
	<circle class="st0" cx="199.1" cy="104.41" r="4.66"/>
	<g>
		<path class="st0" d="M35.76,99.16h41.47v6.31l-16.84,0.01v28.7c0,0-0.58,14.6,12.97,14.96c13.45,0.36,13.6-15.62,13.6-15.62
			v-28.35h7.35v3.09c0,0,4.88-0.36,6.37-0.27s11.9,0.21,15.56,4.79l-4.25,4.25c0,0-1.55-3.09-10.86-3.45c0,0-4.91,0-6.84,0.59v18.71
			c0,0,0.62,22.2-21.06,22.19c-20.68,0-20.14-20.88-20.14-20.88l-0.18-28.74H35.76V99.16z"/>
		<g>
			<path class="st0" d="M177.22,114.83c0,0-8.63-1.04-13.39,7.53l0.03-8.48h-6.93v3.66c0,0-3.81-3.63-11.75-3.66h-12.85V102.4
				l-7.26,1.99v9.51h-6.19h-0.09l-0.01,0.15l-0.02,5.67h6.2v15.95c0,0,0.16,20.48,19.74,20.48c17.85,0,19.57-18.09,19.57-18.09
				v-7.97c0,0,2.05-9.28,10.46-9.2c8.41,0.08,9.37,9.49,9.37,9.49v25.71h7.33v-25.78C191.44,130.32,191.95,114.83,177.22,114.83z
				 M144.95,150.44c0,0-12.44,0.83-12.44-15.77c0-16.42,12.44-15.35,12.44-15.35s12.02-0.5,12.02,15.56
				C156.96,150.87,144.95,150.44,144.95,150.44z"/>
		</g>
		<path class="st0" d="M195.6,115.78v20.75c0,0-0.4,18.92,19.32,19.36c0,0,8.09,0.28,12.3-2.18l-1.15-5.55c0,0-5.35,2.3-9.68,1.9
			c0,0-12.93-0.28-13.29-15.03c0,0-0.28-14.6,13.96-14.95c0,0,5.12-0.24,8.65,1.75l1.75-5.47c0,0-2.5-2.26-10.08-2.3
			c0,0-8.69-0.44-14.56,4.68l-0.02-2.94L195.6,115.78z"/>
	</g>
</g>
</svg>
