<?xml version="1.0" encoding="utf-8"?>
<!-- Generator: Adobe Illustrator 16.0.0, SVG Export Plug-In . SVG Version: 6.00 Build 0)  -->
<!DOCTYPE svg PUBLIC "-//W3C//DTD SVG 1.1//EN" "http://www.w3.org/Graphics/SVG/1.1/DTD/svg11.dtd">
<svg version="1.1" xmlns="http://www.w3.org/2000/svg" xmlns:xlink="http://www.w3.org/1999/xlink" x="0px" y="0px" width="64px"
	 height="64px" viewBox="0 0 64 64" enable-background="new 0 0 64 64" xml:space="preserve">
<g id="_x35_0_document_x2C__optimization_x2C__documentation_x2C__business_x2C__office_x2C__corporation_x2C__job">
</g>
<g id="_x34_9_human_x2C__resource_x2C__conveyor_x2C__business_x2C__office_x2C__corporation_x2C__job">
</g>
<g id="_x34_8_knowledge_x2C__training_x2C__growth_x2C__book_x2C__business_x2C__office_x2C__corporation">
</g>
<g id="_x34_7_skill_x2C__competence_x2C__experience_x2C__business_x2C__office_x2C__corporation_x2C__job">
</g>
<g id="_x34_6_target_x2C__success_x2C__victory_x2C__business_x2C__office_x2C__corporation_x2C__job">
</g>
<g id="_x34_5_inbox_x2C__letter_x2C__email_x2C__business_x2C__office_x2C__corporation_x2C__job">
</g>
<g id="_x34_4_document_x2C__workflow_x2C__sharing_x2C__business_x2C__office_x2C__corporation_x2C__job">
</g>
<g id="_x34_3_budget_x2C__allocation_x2C__money_x2C__business_x2C__office_x2C__corporation_x2C__job">
</g>
<g id="_x34_2_case_x2C__task_x2C__project_x2C__business_x2C__office_x2C__corporation_x2C__job">
</g>
<g id="_x34_1_structure_x2C__structuring_x2C__tasks_x2C__business_x2C__office_x2C__corporation_x2C__job">
</g>
<g id="_x34_0_choice_x2C__dilemma_x2C__question_x2C__business_x2C__office_x2C__corporation_x2C__job">
</g>
<g id="_x33_9_workplace_x2C__table_x2C__laptop_x2C__business_x2C__office_x2C__corporation_x2C__job">
</g>
<g id="_x33_8_bribe_x2C__bag_x2C__money_x2C__business_x2C__office_x2C__corporation_x2C__job">
</g>
<g id="_x33_7_corruption_x2C__forage_x2C__money_x2C__business_x2C__office_x2C__corporation_x2C__job">
</g>
<g id="_x33_6_career_x2C__ladder_x2C__success_x2C__business_x2C__office_x2C__corporation_x2C__job">
</g>
<g id="_x33_5_review_x2C__feedback_x2C__rating_x2C__business_x2C__office_x2C__corporation_x2C__job">
</g>
<g id="_x33_4_manipulation_x2C__thread_x2C__puppet_x2C__business_x2C__office_x2C__corporation_x2C__job">
</g>
<g id="_x33_3_location_x2C__map_x2C__pin_x2C__business_x2C__office_x2C__corporation_x2C__job">
</g>
<g id="_x33_2_retirement_x2C__old_x2C__man_x2C__door_x2C__business_x2C__office_x2C__corporation">
</g>
<g id="_x33_1_victory_x2C__success_x2C__medal_x2C__reward_x2C__business_x2C__office_x2C__corporation">
</g>
<g id="_x33_0_dismissal_x2C__box_x2C__door_x2C__business_x2C__office_x2C__corporation_x2C__job">
</g>
<g id="_x32_9_meeting_x2C__discussion_x2C__question_x2C__business_x2C__office_x2C__corporation_x2C__job">
</g>
<g id="_x32_8_strategy_x2C__vision_x2C__eye_x2C__chess_x2C__business_x2C__office_x2C__corporation">
</g>
<g id="_x32_7_board_x2C__task_x2C__process_x2C__business_x2C__office_x2C__corporation_x2C__job">
</g>
<g id="_x32_6_scheme_x2C__board_x2C__structure_x2C__business_x2C__office_x2C__corporation_x2C__job">
</g>
<g id="_x32_5_conflict_x2C__dialog_x2C__discussion_x2C__business_x2C__office_x2C__corporation_x2C__job">
</g>
<g id="_x32_4_documentation_x2C__document_x2C__repository_x2C__business_x2C__office_x2C__corporation_x2C__job">
</g>
<g id="_x32_3_sprint_x2C__programming_x2C__code_x2C__business_x2C__office_x2C__corporation_x2C__job">
</g>
<g id="_x32_2_cram_x2C__tablet_x2C__work_x2C__business_x2C__office_x2C__corporation_x2C__job">
	<g>
		<g>
			<g>
				<path d="M19.501,6c-0.367,0-0.72-0.202-0.896-0.553l-2-4c-0.247-0.494-0.047-1.095,0.447-1.342
					c0.493-0.246,1.094-0.047,1.342,0.447l2,4c0.247,0.494,0.047,1.095-0.447,1.342C19.804,5.966,19.651,6,19.501,6z"/>
			</g>
			<g>
				<path d="M30.499,6c-0.15,0-0.303-0.034-0.446-0.105c-0.494-0.247-0.694-0.848-0.447-1.342l2-4
					c0.248-0.494,0.848-0.693,1.342-0.447c0.494,0.247,0.694,0.848,0.447,1.342l-2,4C31.219,5.798,30.866,6,30.499,6z"/>
			</g>
			<g>
				<path d="M30.5,6h-11c-0.553,0-1-0.447-1-1s0.447-1,1-1h11c0.553,0,1,0.447,1,1S31.053,6,30.5,6z"/>
			</g>
		</g>
		<g>
			<path d="M41.5,5H31c-0.553,0-1-0.447-1-1s0.447-1,1-1h10.5c0.553,0,1,0.447,1,1S42.053,5,41.5,5z"/>
		</g>
		<g>
			<path d="M19,5H8.5c-0.553,0-1-0.447-1-1s0.447-1,1-1H19c0.553,0,1,0.447,1,1S19.553,5,19,5z"/>
		</g>
		<g>
			<path d="M30.5,50h-25c-0.553,0-1-0.447-1-1V1c0-0.553,0.447-1,1-1h39c0.553,0,1,0.447,1,1v34c0,0.553-0.447,1-1,1s-1-0.447-1-1V2
				h-37v46h24c0.553,0,1,0.447,1,1S31.053,50,30.5,50z"/>
		</g>
		<g>
			<path d="M30.823,47H8.5c-0.553,0-1-0.447-1-1V4c0-0.553,0.447-1,1-1s1,0.447,1,1v41h21.323c0.553,0,1,0.447,1,1
				S31.376,47,30.823,47z"/>
		</g>
		<g>
			<path d="M41.5,36.323c-0.553,0-1-0.447-1-1V4c0-0.553,0.447-1,1-1s1,0.447,1,1v31.323C42.5,35.876,42.053,36.323,41.5,36.323z"/>
		</g>
		<g>
			<g>
				<g>
					<g>
						<path d="M15.498,39c-0.26,0-0.52-0.101-0.716-0.302l-1.951-2c-0.386-0.396-0.378-1.028,0.018-1.414
							c0.395-0.385,1.027-0.378,1.414,0.018l1.951,2c0.386,0.396,0.378,1.028-0.018,1.414C16.002,38.905,15.75,39,15.498,39z"/>
					</g>
					<g>
						<path d="M15.498,39c-0.256,0-0.512-0.098-0.707-0.293c-0.391-0.391-0.391-1.023,0-1.414l4.002-4.002
							c0.391-0.391,1.023-0.391,1.414,0s0.391,1.023,0,1.414l-4.002,4.002C16.01,38.902,15.754,39,15.498,39z"/>
					</g>
				</g>
			</g>
			<g>
				<path d="M33.5,35h-9c-0.553,0-1-0.447-1-1s0.447-1,1-1h9c0.553,0,1,0.447,1,1S34.053,35,33.5,35z"/>
			</g>
			<g>
				<path d="M30.5,39h-6c-0.553,0-1-0.447-1-1s0.447-1,1-1h6c0.553,0,1,0.447,1,1S31.053,39,30.5,39z"/>
			</g>
		</g>
		<g>
			<g>
				<g>
					<g>
						<path d="M15.498,28.001c-0.26,0-0.52-0.101-0.716-0.302l-1.951-2c-0.386-0.396-0.378-1.028,0.018-1.414
							c0.395-0.385,1.027-0.378,1.414,0.018l1.951,2c0.386,0.396,0.378,1.028-0.018,1.414C16.002,27.906,15.75,28.001,15.498,28.001
							z"/>
					</g>
					<g>
						<path d="M15.498,28.001c-0.256,0-0.512-0.098-0.707-0.293c-0.391-0.391-0.391-1.023,0-1.414l4.002-4.002
							c0.391-0.391,1.023-0.391,1.414,0s0.391,1.023,0,1.414l-4.002,4.002C16.01,27.903,15.754,28.001,15.498,28.001z"/>
					</g>
				</g>
			</g>
			<g>
				<path d="M36.5,24.001h-12c-0.553,0-1-0.447-1-1s0.447-1,1-1h12c0.553,0,1,0.447,1,1S37.053,24.001,36.5,24.001z"/>
			</g>
			<g>
				<path d="M30.5,28.001h-6c-0.553,0-1-0.447-1-1s0.447-1,1-1h6c0.553,0,1,0.447,1,1S31.053,28.001,30.5,28.001z"/>
			</g>
		</g>
		<g>
			<g>
				<g>
					<g>
						<path d="M15.498,17.002c-0.26,0-0.52-0.101-0.716-0.302l-1.951-2c-0.386-0.396-0.378-1.028,0.018-1.414
							c0.395-0.385,1.027-0.378,1.414,0.018l1.951,2c0.386,0.396,0.378,1.028-0.018,1.414C16.002,16.907,15.75,17.002,15.498,17.002
							z"/>
					</g>
					<g>
						<path d="M15.498,17.002c-0.256,0-0.512-0.098-0.707-0.293c-0.391-0.391-0.391-1.023,0-1.414l4.002-4.002
							c0.391-0.391,1.023-0.391,1.414,0s0.391,1.023,0,1.414l-4.002,4.002C16.01,16.904,15.754,17.002,15.498,17.002z"/>
					</g>
				</g>
			</g>
			<g>
				<path d="M36.5,13.002h-12c-0.553,0-1-0.447-1-1s0.447-1,1-1h12c0.553,0,1,0.447,1,1S37.053,13.002,36.5,13.002z"/>
			</g>
			<g>
				<path d="M30.5,17.002h-6c-0.553,0-1-0.447-1-1s0.447-1,1-1h6c0.553,0,1,0.447,1,1S31.053,17.002,30.5,17.002z"/>
			</g>
		</g>
		<g>
			<path d="M44.5,64c-8.271,0-15-6.729-15-15s6.729-15,15-15s15,6.729,15,15S52.771,64,44.5,64z M44.5,36c-7.168,0-13,5.832-13,13
				s5.832,13,13,13s13-5.832,13-13S51.668,36,44.5,36z"/>
		</g>
		<g>
			<g>
				<path d="M44.5,55h-7c-0.553,0-1-0.447-1-1s0.447-1,1-1h7c0.553,0,1,0.447,1,1S45.053,55,44.5,55z"/>
			</g>
			<g>
				<path d="M51.5,57c-0.256,0-0.512-0.098-0.707-0.293c-0.391-0.391-0.391-1.023,0-1.414l2-2c0.391-0.391,1.023-0.391,1.414,0
					s0.391,1.023,0,1.414l-2,2C52.012,56.902,51.756,57,51.5,57z"/>
			</g>
			<g>
				<path d="M53.5,55c-0.256,0-0.512-0.098-0.707-0.293l-2-2c-0.391-0.391-0.391-1.023,0-1.414s1.023-0.391,1.414,0l2,2
					c0.391,0.391,0.391,1.023,0,1.414C54.012,54.902,53.756,55,53.5,55z"/>
			</g>
			<g>
				<path d="M53.5,55h-4c-0.553,0-1-0.447-1-1s0.447-1,1-1h4c0.553,0,1,0.447,1,1S54.053,55,53.5,55z"/>
			</g>
			<g>
				<path d="M44.5,55c-0.553,0-1-0.447-1-1s0.447-1,1-1c2.757,0,5-2.243,5-5s-2.243-5-5-5c-0.553,0-1-0.447-1-1s0.447-1,1-1
					c3.859,0,7,3.141,7,7S48.359,55,44.5,55z"/>
			</g>
			<g>
				<path d="M40.028,53.001c-0.274,0-0.548-0.112-0.745-0.333C38.133,51.383,37.5,49.726,37.5,48c0-2.491,1.341-4.814,3.499-6.063
					c0.479-0.279,1.091-0.114,1.366,0.364c0.277,0.479,0.113,1.09-0.364,1.366C40.458,44.561,39.5,46.221,39.5,48
					c0,1.232,0.452,2.417,1.273,3.334c0.368,0.411,0.333,1.044-0.078,1.412C40.505,52.917,40.266,53.001,40.028,53.001z"/>
			</g>
			<g>
				<path d="M45.5,45c-0.256,0-0.512-0.098-0.707-0.293l-2-2c-0.391-0.391-0.391-1.023,0-1.414s1.023-0.391,1.414,0l2,2
					c0.391,0.391,0.391,1.023,0,1.414C46.012,44.902,45.756,45,45.5,45z"/>
			</g>
			<g>
				<path d="M43.5,43c-0.256,0-0.512-0.098-0.707-0.293c-0.391-0.391-0.391-1.023,0-1.414l2-2c0.391-0.391,1.023-0.391,1.414,0
					s0.391,1.023,0,1.414l-2,2C44.012,42.902,43.756,43,43.5,43z"/>
			</g>
		</g>
	</g>
</g>
<g id="_x32_1_leader_x2C__discoverer_x2C__flag_x2C__business_x2C__office_x2C__corporation_x2C__job">
</g>
<g id="_x32_0_rally_x2C__collective_x2C__arm_x2C__business_x2C__office_x2C__corporation_x2C__job">
</g>
<g id="_x31_9_consolidation_x2C__portfolio_x2C__puzzle_x2C__business_x2C__office_x2C__corporation_x2C__job">
</g>
<g id="_x31_8_idea_x2C__creative_x2C__work_x2C__business_x2C__office_x2C__corporation_x2C__job">
</g>
<g id="_x31_7_problem_x2C__stress_x2C__resistance_x2C__business_x2C__office_x2C__corporation_x2C__job">
</g>
<g id="_x31_6_hard_x2C__skills_x2C__skill_x2C__portfolio_x2C__book_x2C__business_x2C__office">
</g>
<g id="_x31_5_time_x2C__management_x2C__clock_x2C__deadline_x2C__business_x2C__office_x2C__corporation">
</g>
<g id="_x31_4_multitasking_x2C__task_x2C__work_x2C__business_x2C__office_x2C__corporation_x2C__job">
</g>
<g id="_x31_3_tranquility_x2C__yoga_x2C__lotus_x2C__posture_x2C__business_x2C__office_x2C__corporation">
</g>
<g id="_x31_2_corporate_x2C__party_x2C__business_x2C__office_x2C__corporation_x2C__job">
</g>
<g id="_x31_1_dialog_x2C__discussion_x2C__work_x2C__business_x2C__office_x2C__corporation_x2C__job">
</g>
<g id="_x31_0_listening_x2C__skill_x2C__dialog_x2C__business_x2C__office_x2C__corporation_x2C__job">
</g>
<g id="_x39__training_x2C__book_x2C__lesson_x2C__business_x2C__office_x2C__corporation_x2C__job">
</g>
<g id="_x38__dress_x2C__code_x2C__shirt_x2C__business_x2C__office_x2C__corporation_x2C__job">
</g>
<g id="_x37__task_x2C__program_x2C__ticket_x2C__business_x2C__office_x2C__corporation_x2C__job">
</g>
<g id="_x36__plan_x2C__graph_x2C__stage_x2C__business_x2C__office_x2C__corporation_x2C__job">
</g>
<g id="_x35__boss_x2C__king_x2C__crown_x2C__business_x2C__office_x2C__corporation_x2C__job">
</g>
<g id="_x34__structure_x2C__structuring_x2C__business_x2C__office_x2C__corporation_x2C__job">
</g>
<g id="_x33__soft_x2C__skills_x2C__communication_x2C__business_x2C__office_x2C__corporation_x2C__job">
</g>
<g id="_x32__office_x2C__house_x2C__portfolio_x2C__business_x2C__corporation_x2C__job">
</g>
<g id="_x31__corporate_x2C__rules_x2C__book_x2C__business_x2C__office_x2C__corporation_x2C__job">
</g>
</svg>
