<?xml version="1.0" encoding="utf-8"?>
<!-- Generator: Adobe Illustrator 16.0.0, SVG Export Plug-In . SVG Version: 6.00 Build 0)  -->
<!DOCTYPE svg PUBLIC "-//W3C//DTD SVG 1.1//EN" "http://www.w3.org/Graphics/SVG/1.1/DTD/svg11.dtd">
<svg version="1.1" xmlns="http://www.w3.org/2000/svg" xmlns:xlink="http://www.w3.org/1999/xlink" x="0px" y="0px" width="64px"
	 height="64px" viewBox="0 0 64 64" enable-background="new 0 0 64 64" xml:space="preserve">
<g id="_x35_0_document_x2C__optimization_x2C__documentation_x2C__business_x2C__office_x2C__corporation_x2C__job">
</g>
<g id="_x34_9_human_x2C__resource_x2C__conveyor_x2C__business_x2C__office_x2C__corporation_x2C__job">
</g>
<g id="_x34_8_knowledge_x2C__training_x2C__growth_x2C__book_x2C__business_x2C__office_x2C__corporation">
</g>
<g id="_x34_7_skill_x2C__competence_x2C__experience_x2C__business_x2C__office_x2C__corporation_x2C__job">
</g>
<g id="_x34_6_target_x2C__success_x2C__victory_x2C__business_x2C__office_x2C__corporation_x2C__job">
</g>
<g id="_x34_5_inbox_x2C__letter_x2C__email_x2C__business_x2C__office_x2C__corporation_x2C__job">
</g>
<g id="_x34_4_document_x2C__workflow_x2C__sharing_x2C__business_x2C__office_x2C__corporation_x2C__job">
</g>
<g id="_x34_3_budget_x2C__allocation_x2C__money_x2C__business_x2C__office_x2C__corporation_x2C__job">
</g>
<g id="_x34_2_case_x2C__task_x2C__project_x2C__business_x2C__office_x2C__corporation_x2C__job">
</g>
<g id="_x34_1_structure_x2C__structuring_x2C__tasks_x2C__business_x2C__office_x2C__corporation_x2C__job">
</g>
<g id="_x34_0_choice_x2C__dilemma_x2C__question_x2C__business_x2C__office_x2C__corporation_x2C__job">
</g>
<g id="_x33_9_workplace_x2C__table_x2C__laptop_x2C__business_x2C__office_x2C__corporation_x2C__job">
</g>
<g id="_x33_8_bribe_x2C__bag_x2C__money_x2C__business_x2C__office_x2C__corporation_x2C__job">
</g>
<g id="_x33_7_corruption_x2C__forage_x2C__money_x2C__business_x2C__office_x2C__corporation_x2C__job">
</g>
<g id="_x33_6_career_x2C__ladder_x2C__success_x2C__business_x2C__office_x2C__corporation_x2C__job">
</g>
<g id="_x33_5_review_x2C__feedback_x2C__rating_x2C__business_x2C__office_x2C__corporation_x2C__job">
</g>
<g id="_x33_4_manipulation_x2C__thread_x2C__puppet_x2C__business_x2C__office_x2C__corporation_x2C__job">
</g>
<g id="_x33_3_location_x2C__map_x2C__pin_x2C__business_x2C__office_x2C__corporation_x2C__job">
</g>
<g id="_x33_2_retirement_x2C__old_x2C__man_x2C__door_x2C__business_x2C__office_x2C__corporation">
</g>
<g id="_x33_1_victory_x2C__success_x2C__medal_x2C__reward_x2C__business_x2C__office_x2C__corporation">
</g>
<g id="_x33_0_dismissal_x2C__box_x2C__door_x2C__business_x2C__office_x2C__corporation_x2C__job">
</g>
<g id="_x32_9_meeting_x2C__discussion_x2C__question_x2C__business_x2C__office_x2C__corporation_x2C__job">
</g>
<g id="_x32_8_strategy_x2C__vision_x2C__eye_x2C__chess_x2C__business_x2C__office_x2C__corporation">
</g>
<g id="_x32_7_board_x2C__task_x2C__process_x2C__business_x2C__office_x2C__corporation_x2C__job">
</g>
<g id="_x32_6_scheme_x2C__board_x2C__structure_x2C__business_x2C__office_x2C__corporation_x2C__job">
	<g>
		<g>
			<g>
				<path d="M3,46c-0.553,0-1-0.447-1-1V7c0-0.553,0.447-1,1-1s1,0.447,1,1v38C4,45.553,3.553,46,3,46z"/>
			</g>
			<g>
				<path d="M3,8C2.447,8,2,7.553,2,7c0-1.654,1.346-3,3-3c0.553,0,1,0.447,1,1S5.553,6,5,6C4.448,6,4,6.448,4,7
					C4,7.553,3.553,8,3,8z"/>
			</g>
		</g>
		<g>
			<g>
				<path d="M61,46c-0.553,0-1-0.447-1-1V7c0-0.553,0.447-1,1-1s1,0.447,1,1v38C62,45.553,61.553,46,61,46z"/>
			</g>
			<g>
				<path d="M61,8c-0.553,0-1-0.447-1-1c0-0.552-0.448-1-1-1c-0.553,0-1-0.447-1-1s0.447-1,1-1c1.654,0,3,1.346,3,3
					C62,7.553,61.553,8,61,8z"/>
			</g>
		</g>
		<g>
			<path d="M59,6H5C4.447,6,4,5.553,4,5s0.447-1,1-1h54c0.553,0,1,0.447,1,1S59.553,6,59,6z"/>
		</g>
		<g>
			<path d="M63,49H1c-0.553,0-1-0.447-1-1v-3c0-0.553,0.447-1,1-1h62c0.553,0,1,0.447,1,1v3C64,48.553,63.553,49,63,49z M2,47h60v-1
				H2V47z"/>
		</g>
		<g>
			<g>
				<g>
					<path d="M21,63c-0.111,0-0.226-0.019-0.336-0.059c-0.521-0.186-0.792-0.758-0.605-1.277l5-14
						c0.185-0.521,0.759-0.794,1.277-0.605c0.521,0.186,0.792,0.758,0.605,1.277l-5,14C21.796,62.745,21.411,63,21,63z"/>
				</g>
				<g>
					<path d="M16,63c-0.111,0-0.226-0.019-0.336-0.059c-0.521-0.186-0.792-0.758-0.605-1.277l5-14
						c0.185-0.521,0.759-0.794,1.277-0.605c0.521,0.186,0.792,0.758,0.605,1.277l-5,14C16.796,62.745,16.411,63,16,63z"/>
				</g>
				<g>
					<path d="M21,63h-5c-0.553,0-1-0.447-1-1s0.447-1,1-1h5c0.553,0,1,0.447,1,1S21.553,63,21,63z"/>
				</g>
			</g>
			<g>
				<g>
					<path d="M43,63c-0.411,0-0.796-0.255-0.941-0.664l-5-14c-0.187-0.52,0.085-1.092,0.605-1.277
						c0.517-0.188,1.093,0.085,1.277,0.605l5,14c0.187,0.52-0.085,1.092-0.605,1.277C43.226,62.981,43.111,63,43,63z"/>
				</g>
				<g>
					<path d="M48,63c-0.411,0-0.796-0.255-0.941-0.664l-5-14c-0.187-0.52,0.085-1.092,0.605-1.277
						c0.517-0.188,1.092,0.085,1.277,0.605l5,14c0.187,0.52-0.085,1.092-0.605,1.277C48.226,62.981,48.111,63,48,63z"/>
				</g>
				<g>
					<path d="M48,63h-5c-0.553,0-1-0.447-1-1s0.447-1,1-1h5c0.553,0,1,0.447,1,1S48.553,63,48,63z"/>
				</g>
			</g>
		</g>
		<g>
			<path d="M40.143,55H23.857c-0.553,0-1-0.447-1-1s0.447-1,1-1h16.285c0.553,0,1,0.447,1,1S40.695,55,40.143,55z"/>
		</g>
		<g>
			<path d="M41.214,58H22.786c-0.553,0-1-0.447-1-1s0.447-1,1-1h18.428c0.553,0,1,0.447,1,1S41.767,58,41.214,58z"/>
		</g>
		<g>
			<path d="M36,6h-8c-0.553,0-1-0.447-1-1V2c0-0.553,0.447-1,1-1h8c0.553,0,1,0.447,1,1v3C37,5.553,36.553,6,36,6z M29,4h6V3h-6V4z"
				/>
		</g>
		<g>
			<path d="M32,34c-4.963,0-9-4.037-9-9s4.037-9,9-9s9,4.037,9,9S36.963,34,32,34z M32,18c-3.859,0-7,3.141-7,7s3.141,7,7,7
				s7-3.141,7-7S35.859,18,32,18z"/>
		</g>
		<g>
			<path d="M20,34H8c-0.553,0-1-0.447-1-1v-4c0-0.553,0.447-1,1-1h12c0.553,0,1,0.447,1,1v4C21,33.553,20.553,34,20,34z M9,32h10v-2
				H9V32z"/>
		</g>
		<g>
			<path d="M20,22H8c-0.553,0-1-0.447-1-1v-4c0-0.553,0.447-1,1-1h12c0.553,0,1,0.447,1,1v4C21,21.553,20.553,22,20,22z M9,20h10v-2
				H9V20z"/>
		</g>
		<g>
			<path d="M38,14H26c-0.553,0-1-0.447-1-1V9c0-0.553,0.447-1,1-1h12c0.553,0,1,0.447,1,1v4C39,13.553,38.553,14,38,14z M27,12h10
				v-2H27V12z"/>
		</g>
		<g>
			<path d="M38,42H26c-0.553,0-1-0.447-1-1v-4c0-0.553,0.447-1,1-1h12c0.553,0,1,0.447,1,1v4C39,41.553,38.553,42,38,42z M27,40h10
				v-2H27V40z"/>
		</g>
		<g>
			<path d="M19.999,32c-0.478,0-0.899-0.343-0.984-0.829c-0.095-0.544,0.271-1.062,0.814-1.156l5.756-1
				c0.543-0.094,1.062,0.271,1.156,0.814s-0.271,1.062-0.814,1.156l-5.756,1C20.113,31.995,20.056,32,19.999,32z"/>
		</g>
		<g>
			<path d="M25.757,21c-0.057,0-0.114-0.005-0.172-0.015l-5.756-1c-0.544-0.095-0.909-0.612-0.814-1.156
				c0.096-0.544,0.611-0.904,1.156-0.814l5.756,1c0.544,0.095,0.909,0.612,0.814,1.156C26.656,20.657,26.234,21,25.757,21z"/>
		</g>
		<g>
			<path d="M56,34H44c-0.553,0-1-0.447-1-1v-4c0-0.553,0.447-1,1-1h12c0.553,0,1,0.447,1,1v4C57,33.553,56.553,34,56,34z M45,32h10
				v-2H45V32z"/>
		</g>
		<g>
			<path d="M56,22H44c-0.553,0-1-0.447-1-1v-4c0-0.553,0.447-1,1-1h12c0.553,0,1,0.447,1,1v4C57,21.553,56.553,22,56,22z M45,20h10
				v-2H45V20z"/>
		</g>
		<g>
			<path d="M44.001,32c-0.057,0-0.114-0.005-0.172-0.015l-5.756-1c-0.544-0.095-0.909-0.612-0.814-1.156s0.612-0.907,1.156-0.814
				l5.756,1c0.544,0.095,0.909,0.612,0.814,1.156C44.9,31.657,44.479,32,44.001,32z"/>
		</g>
		<g>
			<path d="M38.243,21c-0.478,0-0.899-0.343-0.984-0.829c-0.095-0.544,0.271-1.062,0.814-1.156l5.756-1
				c0.543-0.091,1.062,0.271,1.156,0.814s-0.271,1.062-0.814,1.156l-5.756,1C38.357,20.995,38.3,21,38.243,21z"/>
		</g>
		<g>
			<path d="M32,38c-0.553,0-1-0.447-1-1v-4c0-0.553,0.447-1,1-1s1,0.447,1,1v4C33,37.553,32.553,38,32,38z"/>
		</g>
		<g>
			<path d="M32,18c-0.553,0-1-0.447-1-1v-4c0-0.553,0.447-1,1-1s1,0.447,1,1v4C33,17.553,32.553,18,32,18z"/>
		</g>
		<g>
			<path d="M36,25h-8c-0.553,0-1-0.447-1-1s0.447-1,1-1h8c0.553,0,1,0.447,1,1S36.553,25,36,25z"/>
		</g>
		<g>
			<path d="M34,28h-4c-0.553,0-1-0.447-1-1s0.447-1,1-1h4c0.553,0,1,0.447,1,1S34.553,28,34,28z"/>
		</g>
	</g>
</g>
<g id="_x32_5_conflict_x2C__dialog_x2C__discussion_x2C__business_x2C__office_x2C__corporation_x2C__job">
</g>
<g id="_x32_4_documentation_x2C__document_x2C__repository_x2C__business_x2C__office_x2C__corporation_x2C__job">
</g>
<g id="_x32_3_sprint_x2C__programming_x2C__code_x2C__business_x2C__office_x2C__corporation_x2C__job">
</g>
<g id="_x32_2_cram_x2C__tablet_x2C__work_x2C__business_x2C__office_x2C__corporation_x2C__job">
</g>
<g id="_x32_1_leader_x2C__discoverer_x2C__flag_x2C__business_x2C__office_x2C__corporation_x2C__job">
</g>
<g id="_x32_0_rally_x2C__collective_x2C__arm_x2C__business_x2C__office_x2C__corporation_x2C__job">
</g>
<g id="_x31_9_consolidation_x2C__portfolio_x2C__puzzle_x2C__business_x2C__office_x2C__corporation_x2C__job">
</g>
<g id="_x31_8_idea_x2C__creative_x2C__work_x2C__business_x2C__office_x2C__corporation_x2C__job">
</g>
<g id="_x31_7_problem_x2C__stress_x2C__resistance_x2C__business_x2C__office_x2C__corporation_x2C__job">
</g>
<g id="_x31_6_hard_x2C__skills_x2C__skill_x2C__portfolio_x2C__book_x2C__business_x2C__office">
</g>
<g id="_x31_5_time_x2C__management_x2C__clock_x2C__deadline_x2C__business_x2C__office_x2C__corporation">
</g>
<g id="_x31_4_multitasking_x2C__task_x2C__work_x2C__business_x2C__office_x2C__corporation_x2C__job">
</g>
<g id="_x31_3_tranquility_x2C__yoga_x2C__lotus_x2C__posture_x2C__business_x2C__office_x2C__corporation">
</g>
<g id="_x31_2_corporate_x2C__party_x2C__business_x2C__office_x2C__corporation_x2C__job">
</g>
<g id="_x31_1_dialog_x2C__discussion_x2C__work_x2C__business_x2C__office_x2C__corporation_x2C__job">
</g>
<g id="_x31_0_listening_x2C__skill_x2C__dialog_x2C__business_x2C__office_x2C__corporation_x2C__job">
</g>
<g id="_x39__training_x2C__book_x2C__lesson_x2C__business_x2C__office_x2C__corporation_x2C__job">
</g>
<g id="_x38__dress_x2C__code_x2C__shirt_x2C__business_x2C__office_x2C__corporation_x2C__job">
</g>
<g id="_x37__task_x2C__program_x2C__ticket_x2C__business_x2C__office_x2C__corporation_x2C__job">
</g>
<g id="_x36__plan_x2C__graph_x2C__stage_x2C__business_x2C__office_x2C__corporation_x2C__job">
</g>
<g id="_x35__boss_x2C__king_x2C__crown_x2C__business_x2C__office_x2C__corporation_x2C__job">
</g>
<g id="_x34__structure_x2C__structuring_x2C__business_x2C__office_x2C__corporation_x2C__job">
</g>
<g id="_x33__soft_x2C__skills_x2C__communication_x2C__business_x2C__office_x2C__corporation_x2C__job">
</g>
<g id="_x32__office_x2C__house_x2C__portfolio_x2C__business_x2C__corporation_x2C__job">
</g>
<g id="_x31__corporate_x2C__rules_x2C__book_x2C__business_x2C__office_x2C__corporation_x2C__job">
</g>
</svg>
