<?xml version="1.0" encoding="utf-8"?>
<!-- Generator: Adobe Illustrator 16.0.0, SVG Export Plug-In . SVG Version: 6.00 Build 0)  -->
<!DOCTYPE svg PUBLIC "-//W3C//DTD SVG 1.1//EN" "http://www.w3.org/Graphics/SVG/1.1/DTD/svg11.dtd">
<svg version="1.1" xmlns="http://www.w3.org/2000/svg" xmlns:xlink="http://www.w3.org/1999/xlink" x="0px" y="0px" width="100%"
	 height="auto" viewBox="0 0 64 64" enable-background="new 0 0 64 64" xml:space="preserve">
<g id="_x35_0_document_x2C__optimization_x2C__documentation_x2C__business_x2C__office_x2C__corporation_x2C__job">
</g>
<g id="_x34_9_human_x2C__resource_x2C__conveyor_x2C__business_x2C__office_x2C__corporation_x2C__job">
</g>
<g id="_x34_8_knowledge_x2C__training_x2C__growth_x2C__book_x2C__business_x2C__office_x2C__corporation">
</g>
<g id="_x34_7_skill_x2C__competence_x2C__experience_x2C__business_x2C__office_x2C__corporation_x2C__job">
</g>
<g id="_x34_6_target_x2C__success_x2C__victory_x2C__business_x2C__office_x2C__corporation_x2C__job">
</g>
<g id="_x34_5_inbox_x2C__letter_x2C__email_x2C__business_x2C__office_x2C__corporation_x2C__job">
</g>
<g id="_x34_4_document_x2C__workflow_x2C__sharing_x2C__business_x2C__office_x2C__corporation_x2C__job">
</g>
<g id="_x34_3_budget_x2C__allocation_x2C__money_x2C__business_x2C__office_x2C__corporation_x2C__job">
</g>
<g id="_x34_2_case_x2C__task_x2C__project_x2C__business_x2C__office_x2C__corporation_x2C__job">
</g>
<g id="_x34_1_structure_x2C__structuring_x2C__tasks_x2C__business_x2C__office_x2C__corporation_x2C__job">
</g>
<g id="_x34_0_choice_x2C__dilemma_x2C__question_x2C__business_x2C__office_x2C__corporation_x2C__job">
</g>
<g id="_x33_9_workplace_x2C__table_x2C__laptop_x2C__business_x2C__office_x2C__corporation_x2C__job">
	<g>
		<g>
			<path d="M63,30H1c-0.553,0-1-0.447-1-1v-4c0-0.553,0.447-1,1-1h62c0.553,0,1,0.447,1,1v4C64,29.553,63.553,30,63,30z M2,28h60v-2
				H2V28z"/>
		</g>
		<g>
			<path d="M61,63c-0.553,0-1-0.447-1-1V29c0-0.553,0.447-1,1-1s1,0.447,1,1v33C62,62.553,61.553,63,61,63z"/>
		</g>
		<g>
			<path d="M43,63c-0.553,0-1-0.447-1-1V29c0-0.553,0.447-1,1-1s1,0.447,1,1v33C44,62.553,43.553,63,43,63z"/>
		</g>
		<g>
			<path d="M3,63c-0.553,0-1-0.447-1-1V29c0-0.553,0.447-1,1-1s1,0.447,1,1v33C4,62.553,3.553,63,3,63z"/>
		</g>
		<g>
			<path d="M7,63c-0.553,0-1-0.447-1-1V29c0-0.553,0.447-1,1-1s1,0.447,1,1v33C8,62.553,7.553,63,7,63z"/>
		</g>
		<g>
			<path d="M61,41H43c-0.553,0-1-0.447-1-1s0.447-1,1-1h18c0.553,0,1,0.447,1,1S61.553,41,61,41z"/>
		</g>
		<g>
			<path d="M61,52H43c-0.553,0-1-0.447-1-1s0.447-1,1-1h18c0.553,0,1,0.447,1,1S61.553,52,61,52z"/>
		</g>
		<g>
			<path d="M61,63H43c-0.553,0-1-0.447-1-1s0.447-1,1-1h18c0.553,0,1,0.447,1,1S61.553,63,61,63z"/>
		</g>
		<g>
			<path d="M7,63H3c-0.553,0-1-0.447-1-1s0.447-1,1-1h4c0.553,0,1,0.447,1,1S7.553,63,7,63z"/>
		</g>
		<g>
			<path d="M50,36c-0.553,0-1-0.447-1-1v-1c0-0.553,0.447-1,1-1s1,0.447,1,1v1C51,35.553,50.553,36,50,36z"/>
		</g>
		<g>
			<path d="M54,36c-0.553,0-1-0.447-1-1v-1c0-0.553,0.447-1,1-1s1,0.447,1,1v1C55,35.553,54.553,36,54,36z"/>
		</g>
		<g>
			<path d="M54,36h-4c-0.553,0-1-0.447-1-1s0.447-1,1-1h4c0.553,0,1,0.447,1,1S54.553,36,54,36z"/>
		</g>
		<g>
			<path d="M50,47c-0.553,0-1-0.447-1-1v-1c0-0.553,0.447-1,1-1s1,0.447,1,1v1C51,46.553,50.553,47,50,47z"/>
		</g>
		<g>
			<path d="M54,47c-0.553,0-1-0.447-1-1v-1c0-0.553,0.447-1,1-1s1,0.447,1,1v1C55,46.553,54.553,47,54,47z"/>
		</g>
		<g>
			<path d="M54,47h-4c-0.553,0-1-0.447-1-1s0.447-1,1-1h4c0.553,0,1,0.447,1,1S54.553,47,54,47z"/>
		</g>
		<g>
			<path d="M50,58c-0.553,0-1-0.447-1-1v-1c0-0.553,0.447-1,1-1s1,0.447,1,1v1C51,57.553,50.553,58,50,58z"/>
		</g>
		<g>
			<path d="M54,58c-0.553,0-1-0.447-1-1v-1c0-0.553,0.447-1,1-1s1,0.447,1,1v1C55,57.553,54.553,58,54,58z"/>
		</g>
		<g>
			<path d="M54,58h-4c-0.553,0-1-0.447-1-1s0.447-1,1-1h4c0.553,0,1,0.447,1,1S54.553,58,54,58z"/>
		</g>
		<g>
			<path d="M21,51H11c-0.553,0-1-0.447-1-1s0.447-1,1-1h10c0.553,0,1,0.447,1,1S21.553,51,21,51z"/>
		</g>
		<g>
			<path d="M21,48H11c-0.553,0-1-0.447-1-1s0.447-1,1-1h10c0.553,0,1,0.447,1,1S21.553,48,21,48z"/>
		</g>
		<g>
			<path d="M21,63c-0.553,0-1-0.447-1-1V47c0-0.553,0.447-1,1-1s1,0.447,1,1v15C22,62.553,21.553,63,21,63z"/>
		</g>
		<g>
			<path d="M21,63H11c-0.553,0-1-0.447-1-1s0.447-1,1-1h10c0.553,0,1,0.447,1,1S21.553,63,21,63z"/>
		</g>
		<g>
			<path d="M11,63c-0.553,0-1-0.447-1-1V47c0-0.553,0.447-1,1-1s1,0.447,1,1v15C12,62.553,11.553,63,11,63z"/>
		</g>
		<g>
			<path d="M36,20c-0.553,0-1-0.447-1-1V4c0-0.552-0.448-1-1-1H12c-0.552,0-1,0.448-1,1v15c0,0.553-0.447,1-1,1s-1-0.447-1-1V4
				c0-1.654,1.346-3,3-3h22c1.654,0,3,1.346,3,3v15C37,19.553,36.553,20,36,20z"/>
		</g>
		<g>
			<path d="M37,23c-0.553,0-1-0.447-1-1s0.447-1,1-1c0.552,0,1-0.448,1-1c0-0.553,0.447-1,1-1s1,0.447,1,1
				C40,21.654,38.654,23,37,23z"/>
		</g>
		<g>
			<path d="M9,23c-1.654,0-3-1.346-3-3c0-0.553,0.447-1,1-1s1,0.447,1,1c0,0.552,0.448,1,1,1c0.553,0,1,0.447,1,1S9.553,23,9,23z"/>
		</g>
		<g>
			<path d="M37,23H9c-0.553,0-1-0.447-1-1s0.447-1,1-1h28c0.553,0,1,0.447,1,1S37.553,23,37,23z"/>
		</g>
		<g>
			<path d="M39,21c-0.553,0-1-0.447-1-1v-1c0-0.553,0.447-1,1-1s1,0.447,1,1v1C40,20.553,39.553,21,39,21z"/>
		</g>
		<g>
			<path d="M7,21c-0.553,0-1-0.447-1-1v-1c0-0.553,0.447-1,1-1s1,0.447,1,1v1C8,20.553,7.553,21,7,21z"/>
		</g>
		<g>
			<path d="M39,20H7c-0.553,0-1-0.447-1-1s0.447-1,1-1h32c0.553,0,1,0.447,1,1S39.553,20,39,20z"/>
		</g>
		<g>
			<path d="M52,23h-6c-0.553,0-1-0.447-1-1V3c0-0.553,0.447-1,1-1h6c0.553,0,1,0.447,1,1v19C53,22.553,52.553,23,52,23z M47,21h4V4
				h-4V21z"/>
		</g>
		<g>
			<path d="M49,18c-0.553,0-1-0.447-1-1V8c0-0.553,0.447-1,1-1s1,0.447,1,1v9C50,17.553,49.553,18,49,18z"/>
		</g>
		<g>
			<path d="M61,23h-6c-0.553,0-1-0.447-1-1V3c0-0.553,0.447-1,1-1h6c0.553,0,1,0.447,1,1v19C62,22.553,61.553,23,61,23z M56,21h4V4
				h-4V21z"/>
		</g>
		<g>
			<path d="M58,18c-0.553,0-1-0.447-1-1V8c0-0.553,0.447-1,1-1s1,0.447,1,1v9C59,17.553,58.553,18,58,18z"/>
		</g>
	</g>
</g>
<g id="_x33_8_bribe_x2C__bag_x2C__money_x2C__business_x2C__office_x2C__corporation_x2C__job">
</g>
<g id="_x33_7_corruption_x2C__forage_x2C__money_x2C__business_x2C__office_x2C__corporation_x2C__job">
</g>
<g id="_x33_6_career_x2C__ladder_x2C__success_x2C__business_x2C__office_x2C__corporation_x2C__job">
</g>
<g id="_x33_5_review_x2C__feedback_x2C__rating_x2C__business_x2C__office_x2C__corporation_x2C__job">
</g>
<g id="_x33_4_manipulation_x2C__thread_x2C__puppet_x2C__business_x2C__office_x2C__corporation_x2C__job">
</g>
<g id="_x33_3_location_x2C__map_x2C__pin_x2C__business_x2C__office_x2C__corporation_x2C__job">
</g>
<g id="_x33_2_retirement_x2C__old_x2C__man_x2C__door_x2C__business_x2C__office_x2C__corporation">
</g>
<g id="_x33_1_victory_x2C__success_x2C__medal_x2C__reward_x2C__business_x2C__office_x2C__corporation">
</g>
<g id="_x33_0_dismissal_x2C__box_x2C__door_x2C__business_x2C__office_x2C__corporation_x2C__job">
</g>
<g id="_x32_9_meeting_x2C__discussion_x2C__question_x2C__business_x2C__office_x2C__corporation_x2C__job">
</g>
<g id="_x32_8_strategy_x2C__vision_x2C__eye_x2C__chess_x2C__business_x2C__office_x2C__corporation">
</g>
<g id="_x32_7_board_x2C__task_x2C__process_x2C__business_x2C__office_x2C__corporation_x2C__job">
</g>
<g id="_x32_6_scheme_x2C__board_x2C__structure_x2C__business_x2C__office_x2C__corporation_x2C__job">
</g>
<g id="_x32_5_conflict_x2C__dialog_x2C__discussion_x2C__business_x2C__office_x2C__corporation_x2C__job">
</g>
<g id="_x32_4_documentation_x2C__document_x2C__repository_x2C__business_x2C__office_x2C__corporation_x2C__job">
</g>
<g id="_x32_3_sprint_x2C__programming_x2C__code_x2C__business_x2C__office_x2C__corporation_x2C__job">
</g>
<g id="_x32_2_cram_x2C__tablet_x2C__work_x2C__business_x2C__office_x2C__corporation_x2C__job">
</g>
<g id="_x32_1_leader_x2C__discoverer_x2C__flag_x2C__business_x2C__office_x2C__corporation_x2C__job">
</g>
<g id="_x32_0_rally_x2C__collective_x2C__arm_x2C__business_x2C__office_x2C__corporation_x2C__job">
</g>
<g id="_x31_9_consolidation_x2C__portfolio_x2C__puzzle_x2C__business_x2C__office_x2C__corporation_x2C__job">
</g>
<g id="_x31_8_idea_x2C__creative_x2C__work_x2C__business_x2C__office_x2C__corporation_x2C__job">
</g>
<g id="_x31_7_problem_x2C__stress_x2C__resistance_x2C__business_x2C__office_x2C__corporation_x2C__job">
</g>
<g id="_x31_6_hard_x2C__skills_x2C__skill_x2C__portfolio_x2C__book_x2C__business_x2C__office">
</g>
<g id="_x31_5_time_x2C__management_x2C__clock_x2C__deadline_x2C__business_x2C__office_x2C__corporation">
</g>
<g id="_x31_4_multitasking_x2C__task_x2C__work_x2C__business_x2C__office_x2C__corporation_x2C__job">
</g>
<g id="_x31_3_tranquility_x2C__yoga_x2C__lotus_x2C__posture_x2C__business_x2C__office_x2C__corporation">
</g>
<g id="_x31_2_corporate_x2C__party_x2C__business_x2C__office_x2C__corporation_x2C__job">
</g>
<g id="_x31_1_dialog_x2C__discussion_x2C__work_x2C__business_x2C__office_x2C__corporation_x2C__job">
</g>
<g id="_x31_0_listening_x2C__skill_x2C__dialog_x2C__business_x2C__office_x2C__corporation_x2C__job">
</g>
<g id="_x39__training_x2C__book_x2C__lesson_x2C__business_x2C__office_x2C__corporation_x2C__job">
</g>
<g id="_x38__dress_x2C__code_x2C__shirt_x2C__business_x2C__office_x2C__corporation_x2C__job">
</g>
<g id="_x37__task_x2C__program_x2C__ticket_x2C__business_x2C__office_x2C__corporation_x2C__job">
</g>
<g id="_x36__plan_x2C__graph_x2C__stage_x2C__business_x2C__office_x2C__corporation_x2C__job">
</g>
<g id="_x35__boss_x2C__king_x2C__crown_x2C__business_x2C__office_x2C__corporation_x2C__job">
</g>
<g id="_x34__structure_x2C__structuring_x2C__business_x2C__office_x2C__corporation_x2C__job">
</g>
<g id="_x33__soft_x2C__skills_x2C__communication_x2C__business_x2C__office_x2C__corporation_x2C__job">
</g>
<g id="_x32__office_x2C__house_x2C__portfolio_x2C__business_x2C__corporation_x2C__job">
</g>
<g id="_x31__corporate_x2C__rules_x2C__book_x2C__business_x2C__office_x2C__corporation_x2C__job">
</g>
</svg>
